<svg width="30" height="30" viewBox="0 0 30 30" fill="none" xmlns="http://www.w3.org/2000/svg">
<path d="M27.3633 4.04297H23.3789V2.10938C23.3789 1.62398 22.9854 1.23047 22.5 1.23047C22.0146 1.23047 21.6211 1.62398 21.6211 2.10938V4.04297H15.8789V2.10938C15.8789 1.62398 15.4854 1.23047 15 1.23047C14.5146 1.23047 14.1211 1.62398 14.1211 2.10938V4.04297H8.37891V2.10938C8.37891 1.62398 7.98539 1.23047 7.5 1.23047C7.01461 1.23047 6.62109 1.62398 6.62109 2.10938V4.04297H2.63672C1.18283 4.04297 0 5.2258 0 6.67969V26.1328C0 27.5867 1.18283 28.7695 2.63672 28.7695H27.3633C28.8172 28.7695 30 27.5867 30 26.1328V6.67969C30 5.2258 28.8172 4.04297 27.3633 4.04297ZM2.63672 5.80078H6.62109V7.73438C6.62109 8.21977 7.01461 8.61328 7.5 8.61328C7.98539 8.61328 8.37891 8.21977 8.37891 7.73438V5.80078H14.1211V7.73438C14.1211 8.21977 14.5146 8.61328 15 8.61328C15.4854 8.61328 15.8789 8.21977 15.8789 7.73438V5.80078H21.6211V7.73438C21.6211 8.21977 22.0146 8.61328 22.5 8.61328C22.9854 8.61328 23.3789 8.21977 23.3789 7.73438V5.80078H27.3633C27.8479 5.80078 28.2422 6.19506 28.2422 6.67969V10.6055H1.75781V6.67969C1.75781 6.19506 2.15209 5.80078 2.63672 5.80078ZM27.3633 27.0117H2.63672C2.15209 27.0117 1.75781 26.6174 1.75781 26.1328V12.3633H28.2422V26.1328C28.2422 26.6174 27.8479 27.0117 27.3633 27.0117Z" fill="#979797"/>
<path d="M6.09375 14.8242H5.15625C4.67086 14.8242 4.27734 15.2177 4.27734 15.7031C4.27734 16.1885 4.67086 16.582 5.15625 16.582H6.09375C6.57914 16.582 6.97266 16.1885 6.97266 15.7031C6.97266 15.2177 6.57914 14.8242 6.09375 14.8242Z" fill="#979797"/>
<path d="M10.7812 14.8242H9.84375C9.35836 14.8242 8.96484 15.2177 8.96484 15.7031C8.96484 16.1885 9.35836 16.582 9.84375 16.582H10.7812C11.2666 16.582 11.6602 16.1885 11.6602 15.7031C11.6602 15.2177 11.2666 14.8242 10.7812 14.8242Z" fill="#979797"/>
<path d="M15.4688 14.8242H14.5312C14.0459 14.8242 13.6523 15.2177 13.6523 15.7031C13.6523 16.1885 14.0459 16.582 14.5312 16.582H15.4688C15.9541 16.582 16.3477 16.1885 16.3477 15.7031C16.3477 15.2177 15.9541 14.8242 15.4688 14.8242Z" fill="#979797"/>
<path d="M20.1562 14.8242H19.2188C18.7334 14.8242 18.3398 15.2177 18.3398 15.7031C18.3398 16.1885 18.7334 16.582 19.2188 16.582H20.1562C20.6416 16.582 21.0352 16.1885 21.0352 15.7031C21.0352 15.2177 20.6416 14.8242 20.1562 14.8242Z" fill="#979797"/>
<path d="M24.8438 14.8242H23.9062C23.4209 14.8242 23.0273 15.2177 23.0273 15.7031C23.0273 16.1885 23.4209 16.582 23.9062 16.582H24.8438C25.3291 16.582 25.7227 16.1885 25.7227 15.7031C25.7227 15.2177 25.3291 14.8242 24.8438 14.8242Z" fill="#979797"/>
<path d="M6.09375 18.5742H5.15625C4.67086 18.5742 4.27734 18.9677 4.27734 19.4531C4.27734 19.9385 4.67086 20.332 5.15625 20.332H6.09375C6.57914 20.332 6.97266 19.9385 6.97266 19.4531C6.97266 18.9677 6.57914 18.5742 6.09375 18.5742Z" fill="#979797"/>
<path d="M10.7812 18.5742H9.84375C9.35836 18.5742 8.96484 18.9677 8.96484 19.4531C8.96484 19.9385 9.35836 20.332 9.84375 20.332H10.7812C11.2666 20.332 11.6602 19.9385 11.6602 19.4531C11.6602 18.9677 11.2666 18.5742 10.7812 18.5742Z" fill="#979797"/>
<path d="M15.4688 18.5742H14.5312C14.0459 18.5742 13.6523 18.9677 13.6523 19.4531C13.6523 19.9385 14.0459 20.332 14.5312 20.332H15.4688C15.9541 20.332 16.3477 19.9385 16.3477 19.4531C16.3477 18.9677 15.9541 18.5742 15.4688 18.5742Z" fill="#979797"/>
<path d="M20.1562 18.5742H19.2188C18.7334 18.5742 18.3398 18.9677 18.3398 19.4531C18.3398 19.9385 18.7334 20.332 19.2188 20.332H20.1562C20.6416 20.332 21.0352 19.9385 21.0352 19.4531C21.0352 18.9677 20.6416 18.5742 20.1562 18.5742Z" fill="#979797"/>
<path d="M24.8438 18.5742H23.9062C23.4209 18.5742 23.0273 18.9677 23.0273 19.4531C23.0273 19.9385 23.4209 20.332 23.9062 20.332H24.8438C25.3291 20.332 25.7227 19.9385 25.7227 19.4531C25.7227 18.9677 25.3291 18.5742 24.8438 18.5742Z" fill="#979797"/>
<path d="M6.09375 22.3242H5.15625C4.67086 22.3242 4.27734 22.7177 4.27734 23.2031C4.27734 23.6885 4.67086 24.082 5.15625 24.082H6.09375C6.57914 24.082 6.97266 23.6885 6.97266 23.2031C6.97266 22.7177 6.57914 22.3242 6.09375 22.3242Z" fill="#979797"/>
<path d="M10.7812 22.3242H9.84375C9.35836 22.3242 8.96484 22.7177 8.96484 23.2031C8.96484 23.6885 9.35836 24.082 9.84375 24.082H10.7812C11.2666 24.082 11.6602 23.6885 11.6602 23.2031C11.6602 22.7177 11.2666 22.3242 10.7812 22.3242Z" fill="#979797"/>
<path d="M15.4688 22.3242H14.5312C14.0459 22.3242 13.6523 22.7177 13.6523 23.2031C13.6523 23.6885 14.0459 24.082 14.5312 24.082H15.4688C15.9541 24.082 16.3477 23.6885 16.3477 23.2031C16.3477 22.7177 15.9541 22.3242 15.4688 22.3242Z" fill="#979797"/>
<path d="M20.1562 22.3242H19.2188C18.7334 22.3242 18.3398 22.7177 18.3398 23.2031C18.3398 23.6885 18.7334 24.082 19.2188 24.082H20.1562C20.6416 24.082 21.0352 23.6885 21.0352 23.2031C21.0352 22.7177 20.6416 22.3242 20.1562 22.3242Z" fill="#979797"/>
<path d="M24.8438 22.3242H23.9062C23.4209 22.3242 23.0273 22.7177 23.0273 23.2031C23.0273 23.6885 23.4209 24.082 23.9062 24.082H24.8438C25.3291 24.082 25.7227 23.6885 25.7227 23.2031C25.7227 22.7177 25.3291 22.3242 24.8438 22.3242Z" fill="#979797"/>
</svg>
