<svg width="30" height="30" viewBox="0 0 30 30" fill="none" xmlns="http://www.w3.org/2000/svg">
<g clip-path="url(#clip0)">
<path d="M27.6419 0.882324H7.65224C6.35194 0.882324 5.29412 1.94015 5.29412 3.24044V11.4706H2.35812C1.05782 11.4706 0 12.5284 0 13.8287V26.7595C0 28.0598 1.05782 29.1176 2.35812 29.1176H22.3478C23.6481 29.1176 24.7059 28.0598 24.7059 26.7595V18.5294H27.6419C28.9422 18.5294 30 17.4716 30 16.1713V3.24044C30 1.94015 28.9422 0.882324 27.6419 0.882324ZM7.65224 2.64703H27.6419C27.9691 2.64703 28.2353 2.91321 28.2353 3.24044V4.41174H7.05882V3.24044C7.05882 2.91321 7.325 2.64703 7.65224 2.64703ZM28.2353 6.17644V7.94115H7.05882V6.17644H28.2353ZM22.9412 26.7595C22.9412 27.0867 22.675 27.3529 22.3478 27.3529H2.35812C2.03088 27.3529 1.76471 27.0867 1.76471 26.7595V13.8287C1.76471 13.5014 2.03088 13.2353 2.35812 13.2353H22.3478C22.6749 13.2353 22.9412 13.5014 22.9412 13.8287V26.7595ZM27.6419 16.7647H24.7059V13.8287C24.7059 12.5284 23.6481 11.4706 22.3478 11.4706H7.05882V9.70585H28.2353V16.1713C28.2353 16.4985 27.9691 16.7647 27.6419 16.7647Z" fill="#979797"/>
<path d="M9.11765 18.3914C9.11765 17.4944 8.38794 16.7646 7.49094 16.7646H5.15612C4.25912 16.7646 3.52942 17.4944 3.52942 18.3914V20.4321C3.52942 21.3291 4.25912 22.0588 5.15612 22.0588H7.49094C8.38794 22.0588 9.11765 21.3291 9.11765 20.4321V18.3914ZM7.35294 20.2941H5.29412V18.5294H7.35294V20.2941Z" fill="#979797"/>
<path d="M3.52942 23.8235H7.05883V25.5882H3.52942V23.8235Z" fill="#979797"/>
<path d="M8.82349 23.8235H12.3529V25.5882H8.82349V23.8235Z" fill="#979797"/>
<path d="M14.1177 23.8235H17.6471V25.5882H14.1177V23.8235Z" fill="#979797"/>
<path d="M19.4117 23.8235H21.1765V25.5882H19.4117V23.8235Z" fill="#979797"/>
</g>
<defs>
<clipPath id="clip0">
<rect width="30" height="30" rx="4" fill="white"/>
</clipPath>
</defs>
</svg>
