<svg width="30" height="30" viewBox="0 0 30 30" fill="none" xmlns="http://www.w3.org/2000/svg">
<path d="M26.2148 10.1965V2.51953H20.6536V4.21165C18.9874 6.28761 16.7976 7.41096 15.228 7.99095C13.4409 8.65265 12.0351 8.77968 12.0076 8.78197L11.2008 8.84766V8.86574H6.33865C4.88548 8.86574 3.66096 9.86298 3.31352 11.209L0 11.2093V16.9643H3.31352C3.62869 18.1865 4.66759 19.1215 5.94383 19.2826V27.4429H11.5775V19.3565L12.0087 19.3916C12.0628 19.3964 17.3737 19.8715 20.6536 23.9626V25.654H26.2148V17.9771C28.312 17.9203 30 16.1966 30 14.0865C30 11.9765 28.312 10.2532 26.2148 10.1965ZM1.75781 12.9671H3.21442V15.2065H1.75781V12.9671ZM4.97223 16.1835V11.99C4.97223 11.2365 5.58517 10.6236 6.33865 10.6236H11.2008V17.55H6.33865C5.58517 17.55 4.97223 16.937 4.97223 16.1835ZM7.70164 25.6851V19.3078H9.81972V25.6851H7.70164ZM12.9586 17.7493V10.4244C14.4809 10.163 17.8505 9.32396 20.6536 6.77101V21.4025C17.8505 18.8496 14.4809 18.01 12.9586 17.7493ZM24.4569 23.8962H22.4114V4.27734H24.4569V23.8962ZM26.2148 16.2177V11.9561C27.3422 12.011 28.2422 12.9462 28.2422 14.0865C28.2422 15.2273 27.3422 16.1618 26.2148 16.2177Z" fill="#979797"/>
</svg>
