<svg width="30" height="30" viewBox="0 0 30 30" fill="none" xmlns="http://www.w3.org/2000/svg">
<g clip-path="url(#clip0)">
<path d="M26.4299 22.9066V14.9977C26.4299 10.6367 22.8819 7.08874 18.5209 7.08874H15.0059C12.5238 7.08874 10.3056 8.23834 8.85448 10.0327V7.03015H11.4908L6.21817 0L0.945557 7.03015H3.58186V14.9977C3.58186 19.3586 7.12981 22.9066 11.4908 22.9066H15.0059C17.4879 22.9066 19.7062 21.757 21.1572 19.9626V22.9066H18.5327L23.7936 30L29.0544 22.9066H26.4299ZM14.1271 8.90931V10.7551C13.1043 11.1178 12.3696 12.0946 12.3696 13.2402C12.3696 14.6939 13.5522 15.8765 15.0059 15.8765C15.4904 15.8765 15.8846 16.2708 15.8846 16.7553C15.8846 17.2399 15.4904 17.6341 15.0059 17.6341C14.5213 17.6341 14.1271 17.2399 14.1271 16.7553H12.3696C12.3696 17.9009 13.1043 18.8777 14.1271 19.2405V21.0861C11.1501 20.6583 8.85448 18.0913 8.85448 14.9977C8.85448 11.9042 11.1501 9.33704 14.1271 8.90931ZM5.3394 14.9977V5.27261H4.46063L6.21817 2.92923L7.97571 5.27261H7.09694V14.9977C7.09694 17.3393 8.12024 19.4462 9.7428 20.8957C7.19976 20.1406 5.3394 17.7825 5.3394 14.9977ZM15.8846 21.086V19.2404C16.9075 18.8777 17.6422 17.9009 17.6422 16.7553C17.6422 15.3016 16.4595 14.1189 15.0059 14.1189C14.5213 14.1189 14.1271 13.7247 14.1271 13.2402C14.1271 12.7556 14.5213 12.3614 15.0059 12.3614C15.4904 12.3614 15.8846 12.7556 15.8846 13.2401H17.6422C17.6422 12.0946 16.9074 11.1178 15.8846 10.755V8.90931C18.8617 9.33704 21.1572 11.9041 21.1572 14.9977C21.1572 18.0912 18.8617 20.6583 15.8846 21.086ZM23.7936 27.0496L22.0243 24.6641H22.9148V14.9977C22.9148 12.656 21.8915 10.5491 20.2689 9.09965C22.812 9.85469 24.6723 12.2128 24.6723 14.9977V24.6641H25.5628L23.7936 27.0496Z" fill="#979797"/>
</g>
<defs>
<clipPath id="clip0">
<rect width="30" height="30" fill="white"/>
</clipPath>
</defs>
</svg>
