<svg width="70" height="70" viewBox="0 0 70 70" fill="none" xmlns="http://www.w3.org/2000/svg">
<g clip-path="url(#clip0)">
<path d="M46.5344 22.4401C59.3159 22.2448 69.7481 32.3047 69.9956 45.0853C70.0319 46.9618 69.8444 48.7882 69.458 50.5401C68.8037 53.5065 68.4147 56.5251 68.4147 59.5628V65.4346C68.4147 66.3342 67.6854 67.0635 66.7858 67.0635H60.914C57.8763 67.0635 54.8577 67.4524 51.8913 68.1068C50.1395 68.4932 48.3131 68.6807 46.4366 68.6444C33.6562 68.397 23.5963 57.9651 23.7912 45.1839C23.9814 32.7083 34.0589 22.6306 46.5344 22.4401Z" fill="url(#paint0_linear)"/>
<path d="M46.5344 22.4401C59.3159 22.2448 69.7481 32.3047 69.9956 45.0853C70.0319 46.9618 69.8444 48.7882 69.458 50.5401C68.8037 53.5065 68.4147 56.5251 68.4147 59.5628V65.4346C68.4147 66.3342 67.6854 67.0635 66.7858 67.0635H60.914C57.8763 67.0635 54.8577 67.4524 51.8913 68.1068C50.1395 68.4932 48.3131 68.6807 46.4366 68.6444C33.6562 68.397 23.5963 57.9651 23.7912 45.1839C23.9814 32.7083 34.0589 22.6306 46.5344 22.4401Z" fill="url(#paint1_linear)"/>
<path d="M28.5876 1.35472C13.0161 1.11683 0.306921 13.3724 0.00532011 28.9427C-0.03884 31.2285 0.189617 33.4539 0.660475 35.5881C1.45754 39.2018 1.93141 42.8794 1.93141 46.5802V53.7336C1.93141 54.8296 2.81981 55.7181 3.91588 55.7181H11.0693C14.77 55.7181 18.4476 56.192 22.0614 56.989C24.1956 57.4598 26.4208 57.6884 28.7066 57.6441C44.2767 57.3426 56.5323 44.6338 56.2949 29.0626C56.063 13.8641 43.786 1.58673 28.5876 1.35472Z" fill="url(#paint2_linear)"/>
<path d="M14.9004 35.3357C17.3084 35.3357 19.2605 33.3836 19.2605 30.9756C19.2605 28.5676 17.3084 26.6155 14.9004 26.6155C12.4924 26.6155 10.5403 28.5676 10.5403 30.9756C10.5403 33.3836 12.4924 35.3357 14.9004 35.3357Z" fill="white"/>
<path d="M27.2314 35.3357C29.6394 35.3357 31.5915 33.3836 31.5915 30.9756C31.5915 28.5676 29.6394 26.6155 27.2314 26.6155C24.8234 26.6155 22.8713 28.5676 22.8713 30.9756C22.8713 33.3836 24.8234 35.3357 27.2314 35.3357Z" fill="white"/>
<path d="M39.5624 35.3357C41.9704 35.3357 43.9224 33.3836 43.9224 30.9756C43.9224 28.5676 41.9704 26.6155 39.5624 26.6155C37.1543 26.6155 35.2023 28.5676 35.2023 30.9756C35.2023 33.3836 37.1543 35.3357 39.5624 35.3357Z" fill="white"/>
</g>
<defs>
<linearGradient id="paint0_linear" x1="42.23" y1="40.8803" x2="76.1532" y2="74.8034" gradientUnits="userSpaceOnUse">
<stop stop-color="#A7F3CE"/>
<stop offset="1" stop-color="#61DB99"/>
</linearGradient>
<linearGradient id="paint1_linear" x1="53.3347" y1="51.9843" x2="38.926" y2="37.577" gradientUnits="userSpaceOnUse">
<stop stop-color="#27AE60" stop-opacity="0.4"/>
<stop offset="1" stop-color="#007B83"/>
</linearGradient>
<linearGradient id="paint2_linear" x1="17.8649" y1="24.9496" x2="53.6807" y2="60.7654" gradientUnits="userSpaceOnUse">
<stop stop-color="#10AECE"/>
<stop offset="1" stop-color="#0473C4"/>
</linearGradient>
<clipPath id="clip0">
<rect width="70" height="70" fill="white"/>
</clipPath>
</defs>
</svg>
